HIERARCHY
ROOT Hips
{
  OFFSET -69.4423 88.0299 51.6846
  CHANNELS 6 Xposition Yposition Zposition Zrotation Xrotation Yrotation
  JOINT Spine
  {
    OFFSET 12.0259 -0.162853 1.93176e-005
    CHANNELS 3 Zrotation Xrotation Yrotation
    JOINT Spine1
    {
      OFFSET 15.3169 -0.0121909 0
      CHANNELS 3 Zrotation Xrotation Yrotation
      JOINT Spine2
      {
        OFFSET 15.3176 -0.0121922 0
        CHANNELS 3 Zrotation Xrotation Yrotation
        JOINT Neck
        {
          OFFSET 19.9142 1.56236 0
          CHANNELS 3 Zrotation Xrotation Yrotation
          JOINT Head
          {
            OFFSET 6.92646 0 0
            CHANNELS 3 Zrotation Xrotation Yrotation
            End Site
            {
              OFFSET 20.7666 0 0
            }
          }
          JOINT LeftShoulder
          {
            OFFSET -4.94072 -1.14703 8.14416
            CHANNELS 3 Zrotation Xrotation Yrotation
            JOINT LeftArm
            {
              OFFSET 14.108 0 -2.74767e-005
              CHANNELS 3 Zrotation Xrotation Yrotation
              JOINT LeftForeArm
              {
                OFFSET 28.5802 -0.0783412 -0.0284884
                CHANNELS 3 Zrotation Xrotation Yrotation
                JOINT LeftHand
                {
                  OFFSET 27.092 0 0
                  CHANNELS 3 Zrotation Xrotation Yrotation
                  End Site
                  {
                    OFFSET 9.55928 -0.186424 0.145352
                  }
                }
              }
            }
          }
          JOINT RightShoulder
          {
            OFFSET -7.15748 -1.33027 -6.24935
            CHANNELS 3 Zrotation Xrotation Yrotation
            JOINT RightArm
            {
              OFFSET 14.108 0 1.82997e-005
              CHANNELS 3 Zrotation Xrotation Yrotation
              JOINT RightForeArm
              {
                OFFSET 28.5802 -0.0707221 2.30684e-005
                CHANNELS 3 Zrotation Xrotation Yrotation
                JOINT RightHand
                {
                  OFFSET 27.092 0 -1.30073e-005
                  CHANNELS 3 Zrotation Xrotation Yrotation
                  End Site
                  {
                    OFFSET 9.55929 -0.186417 -0.145354
                  }
                }
              }
            }
          }
        }
      }
    }
  }
  JOINT LeftUpLeg
  {
    OFFSET 0.00499725 -0.534999 8.837
    CHANNELS 3 Zrotation Xrotation Yrotation
    JOINT LeftLeg
    {
      OFFSET 39.9035 -0.00124594 0.000252775
      CHANNELS 3 Zrotation Xrotation Yrotation
      JOINT LeftFoot
      {
        OFFSET 39.6689 0 0
        CHANNELS 3 Zrotation Xrotation Yrotation
        JOINT LeftToe
        {
          OFFSET 10.1624 13.6296 0
          CHANNELS 3 Zrotation Xrotation Yrotation
          End Site
          {
            OFFSET 8.38147 0 0
          }
        }
      }
    }
  }
  JOINT RightUpLeg
  {
    OFFSET 0.00499725 -0.535 -8.837
    CHANNELS 3 Zrotation Xrotation Yrotation
    JOINT RightLeg
    {
      OFFSET 39.9036 -0.000268477 0.000106433
      CHANNELS 3 Zrotation Xrotation Yrotation
      JOINT RightFoot
      {
        OFFSET 39.6689 1.17892e-005 0
        CHANNELS 3 Zrotation Xrotation Yrotation
        JOINT RightToe
        {
          OFFSET 10.1624 13.6296 0
          CHANNELS 3 Zrotation Xrotation Yrotation
          End Site
          {
            OFFSET 8.38147 0 0
          }
        }
      }
    }
  }
}
MOTION
Frames:	6
Frame Time:	0.0333333
-51.863 86.0398 84.5098 -71.868 -84.342 -157.183 1.46261 1.18946 0.387919 2.91805 2.38887 0.745737 2.91805 2.38888 0.745717 -12.5545 7.11898 -9.07564 61.844 5.34573 2.44839 -167.671 6.26825 -94.1513 -4.10393 4.07899 81.7835 -22.5668 2.61115 -14.5286 12.7413 -84.7713 14.7175 -167.707 4.50096 74.6341 0.381203 -5.42586 -76.6678 -30.4388 -4.97967 18.2201 7.30412 86.9922 -7.15162 -0.399893 -3.19668 -175.067 -17.9455 0.973939 -0.904133 6.83452 8.35687 0.0620295 90 8.34896e-015 3.18055e-015 -2.88685 8.00353 158.902 -31.0692 -0.187818 0.192113 1.61741 10.0971 1.14083 90 2.10712e-014 7.95139e-015 
-53.7537 86.3783 84.6688 -76.7542 -83.7597 -162.026 1.46604 1.2539 0.361148 2.9252 2.51708 0.690525 2.9252 2.51708 0.690509 -12.4699 7.14799 -9.18836 61.7518 5.20944 2.32332 -167.72 6.33638 -94.2822 -4.77076 3.58767 81.2857 -22.908 2.67076 -14.7155 15.037 -85.4967 16.9902 -167.786 4.50001 74.5138 -0.161095 -5.23919 -77.4423 -29.9117 -4.81708 17.9534 5.57124 86.1088 -5.3942 -0.801021 -2.20432 -176.207 -17.6352 0.984865 -0.896569 6.61576 9.3396 0.0270925 90 -3.18055e-015 -3.18055e-015 -5.44729 8.35452 159.333 -33.8645 -0.157102 0.180498 -0.153728 13.0944 1.85405 90 1.19271e-014 -4.77083e-015 
-55.289 86.6607 84.8551 -78.5861 -83.7601 -164.034 1.54159 1.17266 0.36848 3.07661 2.35528 0.70564 3.07659 2.35527 0.705632 -13.7096 1.92744 -8.75514 62.3319 8.07722 -3.66451 -167.335 1.45641 -92.851 -5.64823 3.41641 80.769 -23.9138 2.85445 -15.2404 24.5741 -87.2194 26.4794 -167.425 -0.4202 75.9849 -1.71684 -4.93611 -78.3751 -29.5212 -4.68706 17.7592 3.90946 84.8688 -3.73127 -1.1003 -2.3183 -177.129 -17.4271 0.996763 -0.906234 6.45182 8.83996 0.0417866 90 -5.56597e-015 -1.59028e-014 -8.15891 7.56248 160.625 -37.4222 -0.174918 0.161807 2.35624 12.0262 1.02229 90 2.8625e-014 -7.95139e-015 
-56.594 86.9455 85.0662 -79.3812 -83.5865 -165.157 1.63719 1.09951 0.395829 3.26766 2.21034 0.76042 3.26765 2.21033 0.760403 -13.9678 2.08287 -8.57652 62.4285 7.89812 -4.0995 -167.054 1.65394 -92.7991 -7.47458 3.71276 79.9958 -25.2194 3.09119 -15.9152 56.0622 -88.7623 57.9688 -167.151 -0.250445 76.1243 -3.35084 -4.85645 -79.1619 -29.464 -4.64451 17.7124 2.66725 83.4502 -2.47227 -1.28535 -2.98208 -177.939 -17.3497 1.00664 -0.938346 6.10278 7.17785 0.100611 90 7.95139e-016 -9.54166e-015 -10.8317 6.76521 162.655 -41.1246 -0.20925 0.109052 5.49656 7.77437 -0.00201994 90 1.11319e-014 -1.74931e-014 
-57.6185 87.1509 85.2321 -77.5208 -83.6115 -163.701 1.73434 1.02592 0.433983 3.46171 2.06496 0.837064 3.4617 2.06495 0.837059 -14.0071 2.09693 -8.78512 62.3494 7.93433 -3.87056 -167.005 1.62662 -93.0813 -8.97806 4.01256 79.1894 -26.3006 3.29873 -16.4626 85.4566 -88.9977 87.3519 -167.122 -0.316108 75.9352 -5.44375 -5.35305 -80.0587 -29.8795 -4.76014 17.934 2.39612 82.6135 -2.16639 -1.41772 -3.49363 -178.368 -17.5689 1.01201 -0.939249 5.77486 6.51622 0.131526 90 -9.54166e-015 -6.36111e-015 -12.9287 5.4577 165.317 -44.557 -0.232385 0.0339858 8.35232 3.68896 -0.577174 90 -3.18055e-015 -1.11319e-014 
-58.4408 87.3123 85.3296 -78.1049 -83.2602 -164.649 1.79715 1.00818 0.431789 3.58771 2.02974 0.823845 3.5877 2.02974 0.823828 -13.8434 2.07784 -8.76014 61.9353 7.8909 -3.69683 -167.155 1.65955 -93.1167 -9.37891 4.06135 78.4519 -27.1856 3.47603 -16.9017 103.853 -88.9933 105.684 -167.289 -0.303785 75.974 -7.14994 -5.67072 -80.931 -30.4779 -4.92315 18.2377 2.30738 82.2377 -2.07127 -1.67474 -3.68407 -178.737 -18.0093 1.01555 -0.927198 5.66421 5.62669 0.152161 90 6.75868e-015 9.54166e-015 -14.8399 3.52075 168.338 -47.3322 -0.243818 -0.0348162 10.4037 1.60202 -0.781415 90 -7.55382e-015 -3.97569e-015 
